<svg aria-hidden="true" style="position: absolute; width: 0; height: 0; overflow: hidden;" version="1.1" xmlns="http://www.w3.org/2000/svg" xmlns:xlink="http://www.w3.org/1999/xlink">
<defs>
<symbol id="icon-Google-Play" viewBox="0 0 153 32">
<path fill="#fff" style="fill: var(--color1, #fff)" d="M118.097 23.028h3.317v-22.224h-3.317v22.224zM147.976 8.809l-3.803 9.636h-0.114l-3.947-9.636h-3.573l5.918 13.467-3.374 7.492h3.461l9.12-20.958h-3.689zM129.164 20.503c-1.088 0-2.603-0.542-2.603-1.886 0-1.716 1.888-2.373 3.516-2.373 1.46 0 2.144 0.315 3.031 0.743-0.258 2.059-2.030 3.516-3.945 3.516zM129.564 8.324c-2.402 0-4.889 1.058-5.918 3.403l2.944 1.228c0.629-1.228 1.801-1.63 3.031-1.63 1.716 0 3.46 1.029 3.488 2.86v0.228c-0.601-0.343-1.886-0.857-3.46-0.857-3.173 0-6.405 1.744-6.405 5.003 0 2.974 2.603 4.891 5.518 4.891 2.231 0 3.46-1.001 4.233-2.174h0.114v1.716h3.202v-8.519c0-3.947-2.944-6.148-6.747-6.148zM109.062 11.515h-4.718v-7.618h4.718c2.48 0 3.888 2.053 3.888 3.808 0 1.723-1.408 3.81-3.888 3.81zM108.977 0.804h-7.948v22.224h3.316v-8.42h4.633c3.676 0 7.291-2.663 7.291-6.903s-3.614-6.901-7.291-6.901zM65.633 20.507c-2.292 0-4.21-1.918-4.21-4.553 0-2.663 1.918-4.612 4.21-4.612 2.263 0 4.037 1.948 4.037 4.612 0 2.635-1.774 4.553-4.037 4.553zM69.441 10.053h-0.114c-0.745-0.887-2.176-1.689-3.98-1.689-3.781 0-7.246 3.321-7.246 7.589 0 4.238 3.465 7.532 7.246 7.532 1.804 0 3.236-0.802 3.98-1.719h0.114v1.088c0 2.894-1.545 4.441-4.037 4.441-2.034 0-3.294-1.461-3.81-2.693l-2.892 1.204c0.83 2.005 3.036 4.468 6.702 4.468 3.895 0 7.189-2.292 7.189-7.876v-13.577h-3.152v1.232zM74.885 23.028h3.323v-22.226h-3.323v22.226zM83.103 15.696c-0.085-2.921 2.263-4.411 3.952-4.411 1.319 0 2.436 0.658 2.807 1.604l-6.759 2.807zM93.414 13.175c-0.629-1.689-2.549-4.811-6.473-4.811-3.895 0-7.131 3.063-7.131 7.561 0 4.238 3.207 7.561 7.502 7.561 3.467 0 5.472-2.119 6.302-3.351l-2.578-1.719c-0.859 1.26-2.034 2.091-3.724 2.091-1.689 0-2.892-0.773-3.666-2.29l10.11-4.181-0.343-0.86zM12.867 10.684v3.207h7.675c-0.229 1.804-0.83 3.122-1.746 4.039-1.118 1.116-2.866 2.347-5.929 2.347-4.725 0-8.421-3.808-8.421-8.533 0-4.727 3.696-8.535 8.421-8.535 2.549 0 4.411 1.003 5.785 2.292l2.263-2.263c-1.92-1.833-4.468-3.237-8.048-3.237-6.473 0-11.915 5.271-11.915 11.744s5.442 11.742 11.915 11.742c3.493 0 6.128-1.145 8.19-3.294 2.119-2.119 2.779-5.097 2.779-7.504 0-0.745-0.057-1.431-0.172-2.004h-10.796zM32.563 20.507c-2.292 0-4.268-1.89-4.268-4.581 0-2.722 1.977-4.583 4.268-4.583 2.29 0 4.267 1.861 4.267 4.583 0 2.692-1.977 4.581-4.267 4.581zM32.563 8.364c-4.183 0-7.591 3.179-7.591 7.561 0 4.352 3.408 7.561 7.591 7.561 4.181 0 7.589-3.209 7.589-7.561 0-4.382-3.408-7.561-7.589-7.561zM49.119 20.507c-2.292 0-4.268-1.89-4.268-4.581 0-2.722 1.977-4.583 4.268-4.583s4.267 1.861 4.267 4.583c0 2.692-1.975 4.581-4.267 4.581zM49.119 8.364c-4.181 0-7.589 3.179-7.589 7.561 0 4.352 3.408 7.561 7.589 7.561s7.589-3.209 7.589-7.561c0-4.382-3.408-7.561-7.589-7.561z"></path>
</symbol>
<symbol id="icon-Close-Menu" viewBox="0 0 32 32">
<path fill="none" stroke="#fff" style="stroke: var(--color1, #fff)" stroke-linejoin="round" stroke-linecap="round" stroke-miterlimit="4" stroke-width="2.6667" d="M24 8l-16 16"></path>
<path fill="none" stroke="#fff" style="stroke: var(--color1, #fff)" stroke-linejoin="round" stroke-linecap="round" stroke-miterlimit="4" stroke-width="2.6667" d="M8 8l16 16"></path>
</symbol>
<symbol id="icon-Burger-Menu" viewBox="0 0 32 32">
<path fill="none" stroke="#fff" style="stroke: var(--color1, #fff)" stroke-linejoin="round" stroke-linecap="round" stroke-miterlimit="4" stroke-width="2.6667" d="M4 16h24"></path>
<path fill="none" stroke="#fff" style="stroke: var(--color1, #fff)" stroke-linejoin="round" stroke-linecap="round" stroke-miterlimit="4" stroke-width="2.6667" d="M4 8h24"></path>
<path fill="none" stroke="#fff" style="stroke: var(--color1, #fff)" stroke-linejoin="round" stroke-linecap="round" stroke-miterlimit="4" stroke-width="2.6667" d="M4 24h24"></path>
</symbol>
<symbol id="icon-Arrow-Left" viewBox="0 0 32 32">
<path fill="none" stroke="#fff" style="stroke: var(--color1, #fff)" stroke-linejoin="round" stroke-linecap="round" stroke-miterlimit="4" stroke-width="1.7778" d="M16 29.333c7.364 0 13.333-5.97 13.333-13.333s-5.97-13.333-13.333-13.333c-7.364 0-13.333 5.97-13.333 13.333s5.97 13.333 13.333 13.333z"></path>
<path fill="none" stroke="#fff" style="stroke: var(--color1, #fff)" stroke-linejoin="round" stroke-linecap="round" stroke-miterlimit="4" stroke-width="1.7778" d="M16 10.667l-5.333 5.333 5.333 5.333"></path>
<path fill="none" stroke="#fff" style="stroke: var(--color1, #fff)" stroke-linejoin="round" stroke-linecap="round" stroke-miterlimit="4" stroke-width="1.7778" d="M21.333 16h-10.667"></path>
</symbol>
<symbol id="icon-Chevron-Down" viewBox="0 0 32 32">
<path fill="none" stroke="#fff" style="stroke: var(--color1, #fff)" stroke-linejoin="miter" stroke-linecap="butt" stroke-miterlimit="4" stroke-width="2.6667" d="M28 10.667l-12 12-12-12"></path>
</symbol>
<symbol id="icon-Chevron-Up" viewBox="0 0 32 32">
<path fill="none" stroke="#fff" style="stroke: var(--color1, #fff)" stroke-linejoin="miter" stroke-linecap="butt" stroke-miterlimit="4" stroke-width="2.6667" d="M28 21.333l-12-12-12 12"></path>
</symbol>
</defs>
</svg>
